<?xml version="1.0" encoding="iso-8859-1"?>
<!-- Uploaded to: SVG Repo, www.svgrepo.com, Generator: SVG Repo Mixer Tools -->
<svg fill="#000000" height="800px" width="800px" version="1.1" id="Layer_1" xmlns="http://www.w3.org/2000/svg" xmlns:xlink="http://www.w3.org/1999/xlink" 
	 viewBox="0 0 512 512" xml:space="preserve">
<g>
	<g>
		<path d="M418.453,356.53l-77.463-77.463l7.238-7.238c5.303,5.146,12.263,7.991,19.669,7.991c7.55,0,14.648-2.941,19.988-8.279
			l2.686-2.686c11.02-11.021,11.02-28.953,0-39.973l-8.997-8.997c29.193-16.46,52.008-39.697,68.043-69.288
			c2.884,0.952,5.884,1.455,8.892,1.455c7.238,0,14.477-2.755,19.988-8.266l2.686-2.686c11.02-11.021,11.02-28.953,0-39.973
			l-5.644-5.644C496.057,92.958,512,75.434,512,54.244c0-22.918-18.644-41.562-41.562-41.562c-21.19,0-38.714,15.944-41.238,36.461
			l-5.643-5.643c-5.34-5.339-12.437-8.279-19.988-8.279s-14.648,2.941-19.988,8.279l-2.686,2.686c-7.8,7.8-10.05,19.055-6.81,28.879
			c-29.59,16.036-52.828,38.851-69.289,68.043l-8.997-8.996c-11.02-11.02-28.952-11.022-39.974,0l-2.686,2.686
			c-10.918,10.918-11.003,28.612-0.287,39.655l-7.238,7.238l-93.707-93.705c14.334-21.785,11.798-50.984-7.301-70.083
			C122.809-1.884,87.348-1.885,65.558,19.905c-9.005,9.004-14.583,20.721-16.003,33.181c-12.459,1.421-24.178,6.999-33.179,16
			C5.815,79.642,0,93.68,0,108.615s5.815,28.971,16.374,39.526c19.097,19.096,48.294,21.634,70.082,7.299l93.705,93.705
			L4.712,424.595c-1.896,1.896-2.939,4.484-2.891,7.166c0.05,2.682,1.189,5.229,3.155,7.055
			c24.077,22.354,55.25,34.581,88.022,34.581c0.814,0,1.63-0.008,2.445-0.022c33.665-0.624,65.317-14.08,89.125-37.888
			l90.968-90.966l77.459,77.466c-14.333,21.793-11.795,50.99,7.301,70.075c10.56,10.56,24.599,16.375,39.532,16.375
			c14.932,0,28.971-5.815,39.534-16.379c8.996-9.005,14.57-20.72,15.991-33.176c12.464-1.418,24.182-6.995,33.179-15.994
			c10.561-10.56,16.377-24.598,16.377-39.53c0-14.932-5.815-28.971-16.378-39.533C469.44,344.743,440.243,342.208,418.453,356.53z
			 M470.438,32.434c12.026,0,21.809,9.783,21.809,21.809s-9.783,21.809-21.809,21.809s-21.81-9.783-21.81-21.809
			S458.412,32.434,470.438,32.434z M394.865,60.152c0,0,2.685-2.685,2.686-2.686c3.275-3.275,8.769-3.27,12.038,0l57.627,57.627
			c3.32,3.319,3.32,8.719,0,12.039l-2.686,2.686c-3.317,3.319-8.715,3.319-12.034,0.003l-28.817-28.816l-28.813-28.813
			C391.545,68.872,391.545,63.472,394.865,60.152z M385.866,91.132l32.274,32.273l15.409,15.409
			c-2.829,5.419-5.908,10.602-9.233,15.551l-54-54C375.265,97.039,380.449,93.96,385.866,91.132z M354.544,112.527l57.608,57.61
			c-4.082,4.647-8.437,9.027-13.057,13.139l-57.691-57.691C345.517,120.964,349.897,116.611,354.544,112.527z M329.156,141.271
			l54.253,54.254c-5.202,3.544-10.657,6.823-16.383,9.812l-47.682-47.683C322.333,151.928,325.612,146.472,329.156,141.271z
			 M267.109,150.765c0,0,2.685-2.685,2.686-2.686c3.274-3.274,8.769-3.268,12.038,0c0,0,18.523,18.523,18.525,18.526l28.859,28.859
			l47.384,47.385c3.32,3.319,3.32,8.719,0,12.039c0,0-2.684,2.684-2.686,2.686c-3.27,3.27-8.774,3.263-12.038,0
			c0,0-6.671-6.671-6.681-6.682l-40.703-40.703l-47.384-47.385C263.789,159.484,263.789,154.084,267.109,150.765z M101.231,142.279
			l11.324-11.324c3.857-3.857,3.857-10.11,0-13.967c-3.858-3.857-10.111-3.857-13.968,0l-18.144,18.144
			c-14.301,13.264-36.284,12.854-50.102-0.961c-6.829-6.824-10.588-15.901-10.588-25.557c0-9.657,3.758-18.733,10.588-25.558
			c5.541-5.541,12.683-9.072,20.308-10.191c1.173,4.776,2.958,9.401,5.319,13.678c1.8,3.263,5.175,5.107,8.656,5.107
			c1.615,0,3.25-0.396,4.763-1.231c4.775-2.635,6.509-8.643,3.874-13.419c-2.265-4.103-3.716-8.705-4.25-13.394
			c0.047-0.525,0.067-1.055,0.029-1.589c-0.747-10.476,3.074-20.734,10.485-28.144c14.087-14.089,37.02-14.088,51.115,0
			c13.84,13.839,14.229,35.882,0.886,50.182c-3.631,3.891-3.527,9.96,0.237,13.722l99.883,99.883l-37.518,37.518L101.231,142.279z
			 M170.599,421.519c-20.173,20.175-46.996,31.578-75.522,32.106c-25.076,0.466-49.155-7.518-68.815-22.646l240.542-240.543
			l67.439,67.439L170.599,421.519z M474.561,428.92c-5.581,5.581-12.782,9.122-20.483,10.208c-1.173-4.782-2.96-9.412-5.323-13.694
			c-2.635-4.775-8.641-6.511-13.419-3.876c-4.775,2.635-6.509,8.643-3.874,13.419c2.515,4.558,4.038,9.728,4.404,14.97
			c0.747,10.476-3.072,20.734-10.476,28.144c-6.829,6.829-15.907,10.59-25.562,10.59s-18.734-3.761-25.565-10.592
			c-13.839-13.831-14.226-35.873-0.881-50.182c3.631-3.893,3.523-9.962-0.245-13.725l-83.633-83.633l37.518-37.518l76.653,76.652
			l-12.039,12.039c-3.858,3.857-3.858,10.111-0.001,13.968c3.781,3.781,10.166,3.802,13.967,0l18.851-18.851
			c14.309-13.26,36.299-12.854,50.109,0.951c6.831,6.829,10.59,15.907,10.59,25.563C485.151,413.012,481.392,422.089,474.561,428.92
			z"/>
	</g>
</g>
<g>
	<g>
		<path d="M277.089,266.423c-3.858-3.857-10.111-3.857-13.968,0L156.525,373.02c-3.857,3.857-3.857,10.11,0,13.967
			c3.774,3.774,10.161,3.807,13.968,0L277.089,280.39C280.946,276.533,280.946,270.28,277.089,266.423z"/>
	</g>
</g>
<g>
	<g>
		<circle cx="291.439" cy="252.077" r="9.877"/>
	</g>
</g>
<g>
	<g>
		<circle cx="470.443" cy="54.242" r="9.877"/>
	</g>
</g>
</svg>